{
  "source": "C:\\Users\\Peter\\Desktop\\stuff\\MIUN\\quantitative_research\\video_compression\\videos\\BVI-HD\\BVI-HD_CDVL_videos\\ORIG\\Typing_1920x1080_60fps.mp4",
  "output": "C:\\Users\\Peter\\Desktop\\stuff\\MIUN\\quantitative_research\\video_compression\\compressed_videos\\BVI-HD\\vp9\\1.5\\Typing_1920x1080_60fps_vp9.webm",
  "codec": "vp9",
  "ok": "Input #0, mov,mp4,m4a,3gp,3g2,mj2, from 'C:\\Users\\Peter\\Desktop\\stuff\\MIUN\\quantitative_research\\video_compression\\videos\\BVI-HD\\BVI-HD_CDVL_videos\\ORIG\\Typing_1920x1080_60fps.mp4':\n  Metadata:\n    major_brand     : isom\n    minor_version   : 512\n    compatible_brands: isomiso2avc1mp41\n    encoder         : Lavf54.28.101\n  Duration: 00:00:05.00, start: 0.000000, bitrate: 203453 kb/s\n  Stream #0:0[0x1](und): Video: h264 (High 4:4:4 Predictive) (avc1 / 0x31637661), yuv420p(progressive), 1920x1080, 203448 kb/s, 60 fps, 60 tbr, 60 tbn (default)\n    Metadata:\n      handler_name    : VideoHandler\n      vendor_id       : [0][0][0][0]\n[out#0/webm @ 0000019029889880] Codec AVOption b:a (set bitrate (in bits/s)) has not been used for any stream. The most likely reason is either wrong type (e.g. a video option with no video streams) or that it is a private option of some decoder which was not actually used for any stream.\nStream mapping:\n  Stream #0:0 -> #0:0 (h264 (native) -> vp9 (libvpx-vp9))\nPress [q] to stop, [?] for help\n[libvpx-vp9 @ 000001902989d180] v1.15.2-100-g40561f514\nOutput #0, webm, to 'C:\\Users\\Peter\\Desktop\\stuff\\MIUN\\quantitative_research\\video_compression\\compressed_videos\\BVI-HD\\vp9\\1.5\\Typing_1920x1080_60fps_vp9.webm':\n  Metadata:\n    major_brand     : isom\n    minor_version   : 512\n    compatible_brands: isomiso2avc1mp41\n    encoder         : Lavf62.3.100\n  Stream #0:0(und): Video: vp9, yuv420p(tv, progressive), 1920x1080, q=2-31, 1500 kb/s, 60 fps, 1k tbn (default)\n    Metadata:\n      encoder         : Lavc62.11.100 libvpx-vp9\n      handler_name    : VideoHandler\n      vendor_id       : [0][0][0][0]\n    Side data:\n      cpb: bitrate max/min/avg: 0/0/0 buffer size: 1500000 vbv_delay: N/A\nframe=    0 fps=0.0 q=0.0 size=       0KiB time=N/A bitrate=N/A speed=N/A elapsed=0:00:00.52    \nframe=    7 fps=6.3 q=48.0 size=       1KiB time=00:00:00.11 bitrate=  43.4kbits/s speed=0.106x elapsed=0:00:01.10    \nframe=   13 fps=7.9 q=38.0 size=       1KiB time=00:00:00.21 bitrate=  23.4kbits/s speed=0.131x elapsed=0:00:01.65    \nframe=   19 fps=8.7 q=45.0 size=       1KiB time=00:00:00.31 bitrate=  16.0kbits/s speed=0.145x elapsed=0:00:02.19    \nframe=   24 fps=8.8 q=44.0 size=       1KiB time=00:00:00.40 bitrate=  12.7kbits/s speed=0.146x elapsed=0:00:02.73    \nframe=   30 fps=9.1 q=44.0 size=       1KiB time=00:00:00.50 bitrate=  10.1kbits/s speed=0.152x elapsed=0:00:03.29    \nframe=   34 fps=8.8 q=45.0 size=       1KiB time=00:00:00.56 bitrate=   8.9kbits/s speed=0.146x elapsed=0:00:03.87    \nframe=   36 fps=8.1 q=42.0 size=       1KiB time=00:00:00.60 bitrate=   8.4kbits/s speed=0.135x elapsed=0:00:04.43    \nframe=   42 fps=8.5 q=45.0 size=       1KiB time=00:00:00.68 bitrate=   7.4kbits/s speed=0.138x elapsed=0:00:04.96    \nframe=   47 fps=8.5 q=42.0 size=       1KiB time=00:00:00.78 bitrate=   6.5kbits/s speed=0.141x elapsed=0:00:05.54    \nframe=   51 fps=8.3 q=40.0 size=       1KiB time=00:00:00.85 bitrate=   6.0kbits/s speed=0.139x elapsed=0:00:06.11    \nframe=   57 fps=8.6 q=41.0 size=       1KiB time=00:00:00.95 bitrate=   5.3kbits/s speed=0.143x elapsed=0:00:06.63    \nframe=   60 fps=8.4 q=41.0 size=       1KiB time=00:00:01.00 bitrate=   5.1kbits/s speed=0.139x elapsed=0:00:07.18    \nframe=   65 fps=8.4 q=41.0 size=       1KiB time=00:00:01.08 bitrate=   4.7kbits/s speed=0.14x elapsed=0:00:07.72    \nframe=   70 fps=8.5 q=43.0 size=       1KiB time=00:00:01.16 bitrate=   4.3kbits/s speed=0.141x elapsed=0:00:08.24    \nframe=   76 fps=8.7 q=44.0 size=       1KiB time=00:00:01.26 bitrate=   4.0kbits/s speed=0.144x elapsed=0:00:08.77    \nframe=   81 fps=8.7 q=42.0 size=       1KiB time=00:00:01.35 bitrate=   3.8kbits/s speed=0.145x elapsed=0:00:09.30    \nframe=   86 fps=8.8 q=45.0 size=       1KiB time=00:00:01.43 bitrate=   3.5kbits/s speed=0.146x elapsed=0:00:09.82    \nframe=   91 fps=8.8 q=45.0 size=       1KiB time=00:00:01.51 bitrate=   3.3kbits/s speed=0.146x elapsed=0:00:10.39    \nframe=   96 fps=8.8 q=43.0 size=       1KiB time=00:00:01.60 bitrate=   3.2kbits/s speed=0.146x elapsed=0:00:10.96    \nframe=  102 fps=8.9 q=44.0 size=       1KiB time=00:00:01.70 bitrate=   3.0kbits/s speed=0.148x elapsed=0:00:11.49    \nframe=  106 fps=8.8 q=45.0 size=       1KiB time=00:00:01.76 bitrate=   2.9kbits/s speed=0.147x elapsed=0:00:12.02    \nframe=  110 fps=8.8 q=45.0 size=       1KiB time=00:00:01.81 bitrate=   2.8kbits/s speed=0.145x elapsed=0:00:12.54    \nframe=  116 fps=8.9 q=45.0 size=       1KiB time=00:00:01.93 bitrate=   2.6kbits/s speed=0.148x elapsed=0:00:13.10    \nframe=  120 fps=8.8 q=45.0 size=       1KiB time=00:00:02.00 bitrate=   2.5kbits/s speed=0.147x elapsed=0:00:13.62    \nframe=  125 fps=8.8 q=44.0 size=       1KiB time=00:00:02.08 bitrate=   2.4kbits/s speed=0.147x elapsed=0:00:14.18    \nframe=  130 fps=8.8 q=42.0 size=     256KiB time=00:00:02.16 bitrate= 967.9kbits/s speed=0.147x elapsed=0:00:14.71    \nframe=  135 fps=8.9 q=44.0 size=     256KiB time=00:00:02.25 bitrate= 932.1kbits/s speed=0.148x elapsed=0:00:15.24    \nframe=  139 fps=8.8 q=45.0 size=     256KiB time=00:00:02.31 bitrate= 905.2kbits/s speed=0.147x elapsed=0:00:15.76    \nframe=  146 fps=9.0 q=39.0 size=     256KiB time=00:00:02.43 bitrate= 861.8kbits/s speed=0.149x elapsed=0:00:16.30    \nframe=  151 fps=8.9 q=42.0 size=     256KiB time=00:00:02.51 bitrate= 833.3kbits/s speed=0.149x elapsed=0:00:16.89    \nframe=  155 fps=8.9 q=39.0 size=     256KiB time=00:00:02.58 bitrate= 811.8kbits/s speed=0.148x elapsed=0:00:17.47    \nframe=  160 fps=8.9 q=38.0 size=     256KiB time=00:00:02.66 bitrate= 786.4kbits/s speed=0.148x elapsed=0:00:18.02    \nframe=  164 fps=8.8 q=21.0 size=     256KiB time=00:00:02.73 bitrate= 767.3kbits/s speed=0.147x elapsed=0:00:18.58    \nframe=  168 fps=8.8 q=35.0 size=     256KiB time=00:00:02.80 bitrate= 749.0kbits/s speed=0.147x elapsed=0:00:19.10    \nframe=  173 fps=8.8 q=35.0 size=     256KiB time=00:00:02.88 bitrate= 727.3kbits/s speed=0.147x elapsed=0:00:19.62    \nframe=  177 fps=8.8 q=33.0 size=     256KiB time=00:00:02.95 bitrate= 710.9kbits/s speed=0.146x elapsed=0:00:20.20    \nframe=  182 fps=8.8 q=36.0 size=     256KiB time=00:00:03.03 bitrate= 691.4kbits/s speed=0.146x elapsed=0:00:20.72    \nframe=  186 fps=8.7 q=40.0 size=     256KiB time=00:00:03.10 bitrate= 676.5kbits/s speed=0.146x elapsed=0:00:21.29    \nframe=  190 fps=8.7 q=40.0 size=     256KiB time=00:00:03.16 bitrate= 662.3kbits/s speed=0.145x elapsed=0:00:21.83    \nframe=  195 fps=8.7 q=40.0 size=     256KiB time=00:00:03.25 bitrate= 645.3kbits/s speed=0.145x elapsed=0:00:22.35    \nframe=  199 fps=8.7 q=42.0 size=     256KiB time=00:00:03.31 bitrate= 632.3kbits/s speed=0.145x elapsed=0:00:22.87    \nframe=  203 fps=8.6 q=39.0 size=     256KiB time=00:00:03.38 bitrate= 619.8kbits/s speed=0.144x elapsed=0:00:23.47    \nframe=  208 fps=8.6 q=43.0 size=     256KiB time=00:00:03.45 bitrate= 607.9kbits/s speed=0.143x elapsed=0:00:24.05    \nframe=  211 fps=8.6 q=40.0 size=     256KiB time=00:00:03.51 bitrate= 596.3kbits/s speed=0.143x elapsed=0:00:24.63    \nframe=  216 fps=8.6 q=44.0 size=     256KiB time=00:00:03.60 bitrate= 582.5kbits/s speed=0.143x elapsed=0:00:25.15    \nframe=  222 fps=8.6 q=43.0 size=     256KiB time=00:00:03.70 bitrate= 566.8kbits/s speed=0.144x elapsed=0:00:25.67    \nframe=  225 fps=8.6 q=45.0 size=     256KiB time=00:00:03.75 bitrate= 559.2kbits/s speed=0.143x elapsed=0:00:26.24    \nframe=  230 fps=8.6 q=43.0 size=     256KiB time=00:00:03.83 bitrate= 547.1kbits/s speed=0.143x elapsed=0:00:26.81    \nframe=  235 fps=8.6 q=41.0 size=     256KiB time=00:00:03.91 bitrate= 535.4kbits/s speed=0.143x elapsed=0:00:27.33    \nframe=  238 fps=8.5 q=43.0 size=     256KiB time=00:00:03.96 bitrate= 528.7kbits/s speed=0.142x elapsed=0:00:27.87    \nframe=  244 fps=8.6 q=41.0 size=     256KiB time=00:00:04.06 bitrate= 515.7kbits/s speed=0.143x elapsed=0:00:28.39    \nframe=  247 fps=8.5 q=43.0 size=     256KiB time=00:00:04.11 bitrate= 509.4kbits/s speed=0.142x elapsed=0:00:28.90    \nframe=  253 fps=8.6 q=43.0 size=     256KiB time=00:00:04.20 bitrate= 499.3kbits/s speed=0.143x elapsed=0:00:29.42    \nframe=  257 fps=8.6 q=22.0 size=     256KiB time=00:00:04.28 bitrate= 489.6kbits/s speed=0.143x elapsed=0:00:29.98    \nframe=  264 fps=8.7 q=40.0 size=     512KiB time=00:00:04.40 bitrate= 953.3kbits/s speed=0.144x elapsed=0:00:30.50    \nframe=  268 fps=8.6 q=43.0 size=     512KiB time=00:00:04.46 bitrate= 939.0kbits/s speed=0.144x elapsed=0:00:31.01    \nframe=  273 fps=8.7 q=43.0 size=     512KiB time=00:00:04.53 bitrate= 925.2kbits/s speed=0.144x elapsed=0:00:31.55    \nframe=  276 fps=8.6 q=43.0 size=     512KiB time=00:00:04.60 bitrate= 911.8kbits/s speed=0.143x elapsed=0:00:32.10    \nframe=  276 fps=8.5 q=43.0 size=     512KiB time=00:00:04.60 bitrate= 911.8kbits/s speed=0.141x elapsed=0:00:32.64    \nframe=  276 fps=8.3 q=43.0 size=     512KiB time=00:00:04.60 bitrate= 911.8kbits/s speed=0.139x elapsed=0:00:33.16    \nframe=  276 fps=8.2 q=43.0 size=     512KiB time=00:00:04.60 bitrate= 911.8kbits/s speed=0.136x elapsed=0:00:33.71    \nframe=  300 fps=8.8 q=43.0 size=     512KiB time=00:00:04.60 bitrate= 911.8kbits/s speed=0.134x elapsed=0:00:34.25    \n[out#0/webm @ 0000019029889880] video:942KiB audio:0KiB subtitle:0KiB other streams:0KiB global headers:0KiB muxing overhead: 0.293882%\nframe=  300 fps=8.8 q=43.0 Lsize=     945KiB time=00:00:05.00 bitrate=1548.0kbits/s speed=0.146x elapsed=0:00:34.26    \n",
  "seconds": 34.61763572692871,
  "probe_out": {}
}